M48
; DRILL file {KiCad 7.0.6-0} date 2023 November 17, Friday 13:10:14
; FORMAT={-:-/ absolute / inch / decimal}
; #@! TF.CreationDate,2023-11-17T13:10:14+02:00
; #@! TF.GenerationSoftware,Kicad,Pcbnew,7.0.6-0
; #@! TF.FileFunction,Plated,1,2,PTH
FMAT,2
INCH
; #@! TA.AperFunction,Plated,PTH,ViaDrill
T1C0.0157
; #@! TA.AperFunction,Plated,PTH,ViaDrill
T2C0.0276
; #@! TA.AperFunction,Plated,PTH,ComponentDrill
T3C0.0276
; #@! TA.AperFunction,Plated,PTH,ComponentDrill
T4C0.0295
; #@! TA.AperFunction,Plated,PTH,ComponentDrill
T5C0.0300
; #@! TA.AperFunction,Plated,PTH,ComponentDrill
T6C0.0315
; #@! TA.AperFunction,Plated,PTH,ComponentDrill
T7C0.0394
; #@! TA.AperFunction,Plated,PTH,ComponentDrill
T8C0.0472
; #@! TA.AperFunction,Plated,PTH,ComponentDrill
T9C0.0551
; #@! TA.AperFunction,Plated,PTH,ComponentDrill
T10C0.0984
; #@! TA.AperFunction,Plated,PTH,ComponentDrill
T11C0.1122
%
G90
G05
T1
X7.922Y-2.475
X8.0251Y-2.0472
X9.522Y-5.775
T2
X1.597Y-5.876
X1.822Y-3.375
X1.8225Y-8.273
X1.9725Y-4.2755
X2.022Y-4.875
X2.022Y-5.877
X2.022Y-6.875
X2.022Y-7.873
X2.022Y-8.875
X2.023Y-4.775
X2.122Y-4.977
X2.122Y-5.973
X2.122Y-6.875
X2.122Y-6.975
X2.122Y-7.975
X2.122Y-8.875
X2.122Y-8.989
X2.123Y-4.775
X2.172Y-4.275
X2.322Y-4.575
X2.322Y-5.975
X2.3225Y-4.3255
X2.472Y-4.325
X2.522Y-4.075
X2.522Y-4.875
X2.522Y-5.873
X2.522Y-6.873
X2.522Y-7.875
X2.522Y-8.877
X2.608Y-3.475
X2.622Y-3.9
X2.622Y-5.025
X2.622Y-5.875
X2.622Y-6.025
X2.622Y-7.024
X2.622Y-7.875
X2.622Y-8.025
X2.622Y-8.875
X2.622Y-8.989
X2.623Y-4.775
X2.6693Y-3.373
X2.772Y-4.0725
X2.822Y-4.625
X2.822Y-5.925
X2.922Y-3.825
X2.922Y-4.575
X2.925Y-4.973
X3.022Y-4.075
X3.022Y-4.375
X3.022Y-4.675
X3.022Y-4.875
X3.022Y-5.877
X3.022Y-6.875
X3.022Y-7.875
X3.022Y-8.873
X3.0225Y-3.5755
X3.072Y-4.275
X3.122Y-3.575
X3.122Y-4.375
X3.122Y-5.025
X3.122Y-6.025
X3.122Y-6.875
X3.122Y-7.024
X3.122Y-8.025
X3.122Y-8.875
X3.123Y-4.775
X3.123Y-8.988
X3.172Y-4.075
X3.2225Y-4.973
X3.2245Y-3.325
X3.272Y-3.775
X3.3225Y-6.923
X3.4245Y-4.5225
X3.4245Y-4.975
X3.472Y-3.375
X3.522Y-3.0225
X3.522Y-4.875
X3.522Y-5.875
X3.522Y-6.877
X3.522Y-7.871
X3.522Y-8.869
X3.5225Y-4.523
X3.5245Y-4.375
X3.5975Y-4.273
X3.622Y-3.875
X3.622Y-5.025
X3.622Y-5.875
X3.622Y-6.025
X3.622Y-7.875
X3.622Y-8.025
X3.622Y-8.989
X3.622Y-8.875
X3.623Y-4.775
X3.623Y-7.024
X3.722Y-3.2725
X3.822Y-3.275
X3.822Y-3.575
X3.822Y-4.375
X3.822Y-7.875
X3.8225Y-4.2255
X3.8225Y-6.973
X3.922Y-3.775
X3.972Y-3.575
X3.972Y-4.1748
X3.972Y-4.575
X4.022Y-4.325
X4.022Y-4.475
X4.022Y-4.875
X4.022Y-5.875
X4.022Y-6.875
X4.022Y-7.875
X4.022Y-8.875
X4.072Y-3.3225
X4.122Y-2.925
X4.122Y-5.025
X4.122Y-6.025
X4.122Y-6.875
X4.122Y-7.024
X4.122Y-8.025
X4.122Y-8.875
X4.122Y-8.989
X4.123Y-4.775
X4.222Y-3.575
X4.222Y-3.973
X4.222Y-4.975
X4.2225Y-4.4255
X4.223Y-4.575
X4.272Y-3.375
X4.272Y-3.875
X4.322Y-3.775
X4.4225Y-4.523
X4.522Y-4.875
X4.522Y-5.875
X4.522Y-6.877
X4.522Y-7.875
X4.522Y-8.873
X4.523Y-4.575
X4.5725Y-3.8255
X4.622Y-5.025
X4.622Y-5.875
X4.622Y-6.025
X4.622Y-7.024
X4.622Y-7.875
X4.622Y-8.025
X4.623Y-4.775
X4.623Y-8.874
X4.623Y-8.988
X4.6725Y-3.7755
X4.722Y-3.376
X4.722Y-4.675
X4.797Y-4.975
X4.822Y-7.8807
X4.922Y-3.275
X4.922Y-4.675
X4.973Y-4.475
X5.022Y-4.1735
X5.022Y-4.875
X5.022Y-5.877
X5.022Y-6.875
X5.022Y-7.871
X5.022Y-8.873
X5.0725Y-3.823
X5.122Y-3.475
X5.122Y-5.025
X5.122Y-6.025
X5.122Y-6.875
X5.122Y-7.024
X5.122Y-8.025
X5.122Y-8.989
X5.122Y-8.875
X5.1225Y-3.573
X5.123Y-4.775
X5.1725Y-3.873
X5.222Y-5.975
X5.2725Y-3.923
X5.2975Y-8.273
X5.322Y-3.175
X5.322Y-7.075
X5.3225Y-2.373
X5.3225Y-8.823
X5.3725Y-3.673
X5.422Y-3.175
X5.473Y-4.375
X5.522Y-3.525
X5.522Y-4.875
X5.522Y-5.877
X5.522Y-6.877
X5.522Y-7.875
X5.522Y-8.875
X5.5725Y-3.373
X5.622Y-3.625
X5.622Y-5.025
X5.622Y-5.875
X5.622Y-7.024
X5.622Y-7.225
X5.622Y-7.875
X5.622Y-8.025
X5.622Y-8.875
X5.622Y-8.989
X5.6225Y-4.2255
X5.6226Y-6.0256
X5.623Y-4.775
X5.722Y-5.975
X5.7225Y-3.7755
X5.723Y-4.325
X5.7725Y-2.573
X5.8225Y-4.4255
X5.823Y-6.774
X5.872Y-2.325
X5.922Y-3.475
X5.922Y-5.125
X5.922Y-6.125
X5.922Y-7.125
X5.922Y-8.425
X5.922Y-8.525
X5.922Y-8.725
X5.9225Y-4.523
X5.9725Y-3.5755
X6.022Y-3.275
X6.022Y-6.975
X6.072Y-6.825
X6.0725Y-3.823
X6.0725Y-5.8005
X6.122Y-3.375
X6.122Y-7.225
X6.122Y-8.575
X6.1225Y-6.1255
X6.123Y-4.575
X6.164Y-4.1735
X6.172Y-5.075
X6.172Y-5.275
X6.172Y-6.2275
X6.172Y-7.675
X6.1725Y-5.573
X6.1725Y-7.8255
X6.21Y-4.9687
X6.216Y-7.966
X6.222Y-6.525
X6.222Y-6.975
X6.222Y-7.125
X6.2225Y-4.2755
X6.2225Y-6.423
X6.223Y-4.475
X6.2725Y-3.873
X6.32Y-5.073
X6.3225Y-3.273
X6.323Y-4.375
X6.372Y-4.775
X6.372Y-5.875
X6.372Y-8.275
X6.3725Y-3.923
X6.422Y-2.875
X6.422Y-7.075
X6.422Y-7.775
X6.472Y-5.875
X6.472Y-6.8
X6.472Y-7.325
X6.4725Y-3.6755
X6.52Y-7.5755
X6.522Y-3.823
X6.522Y-6.375
X6.522Y-7.875
X6.5225Y-5.0307
X6.572Y-3.275
X6.572Y-7.275
X6.5725Y-6.273
X6.622Y-2.675
X6.622Y-3.875
X6.672Y-3.475
X6.672Y-6.8
X6.6725Y-3.723
X6.722Y-2.675
X6.722Y-3.575
X6.722Y-7.375
X6.7245Y-6.2725
X6.772Y-5.275
X6.822Y-3.575
X6.822Y-7.575
X6.872Y-3.875
X6.872Y-6.375
X6.872Y-7.275
X6.872Y-7.775
X6.872Y-7.875
X6.922Y-6.875
X6.972Y-2.675
X6.973Y-4.775
X7.022Y-2.375
X7.022Y-3.225
X7.022Y-3.475
X7.022Y-5.725
X7.022Y-7.321
X7.022Y-7.7725
X7.022Y-8.725
X7.072Y-5.425
X7.072Y-5.875
X7.072Y-6.025
X7.072Y-8.125
X7.072Y-8.375
X7.09Y-3.474
X7.092Y-3.766
X7.122Y-6.625
X7.122Y-7.325
X7.122Y-7.425
X7.1225Y-4.1755
X7.1225Y-4.6755
X7.1245Y-8.475
X7.222Y-6.575
X7.2225Y-4.7755
X7.272Y-7.275
X7.3225Y-5.273
X7.34Y-3.162
X7.372Y-2.675
X7.375Y-6.073
X7.422Y-3.025
X7.422Y-5.325
X7.422Y-6.325
X7.422Y-6.825
X7.472Y-3.275
X7.4725Y-8.323
X7.522Y-5.275
X7.522Y-5.875
X7.522Y-6.825
X7.5225Y-3.8755
X7.572Y-7.325
X7.573Y-4.0235
X7.573Y-4.325
X7.622Y-5.575
X7.622Y-7.075
X7.622Y-8.075
X7.622Y-8.275
X7.6225Y-2.923
X7.6225Y-3.773
X7.6225Y-5.873
X7.6225Y-6.073
X7.625Y-6.378
X7.672Y-3.175
X7.672Y-3.275
X7.672Y-4.025
X7.672Y-4.225
X7.672Y-5.325
X7.672Y-7.275
X7.672Y-7.375
X7.6725Y-8.6755
X7.6725Y-8.8255
X7.722Y-3.475
X7.7225Y-5.8255
X7.752Y-6.825
X7.7725Y-5.2755
X7.7745Y-8.775
X7.816Y-4.851
X7.822Y-6.775
X7.822Y-7.275
X7.8245Y-8.625
X7.872Y-6.575
X7.872Y-7.075
X7.922Y-4.8508
X7.922Y-5.175
X7.922Y-5.875
X7.922Y-6.775
X7.922Y-8.375
X7.9225Y-5.7755
X7.934Y-8.999
X8.022Y-5.475
X8.022Y-8.999
X8.0251Y-4.8508
X8.122Y-2.575
X8.122Y-6.4755
X8.1225Y-6.173
X8.1225Y-6.3755
X8.1225Y-8.1755
X8.128Y-4.997
X8.222Y-5.123
X8.226Y-4.849
X8.322Y-3.525
X8.322Y-8.575
X8.372Y-2.975
X8.372Y-3.675
X8.422Y-3.6
X8.422Y-8.275
X8.472Y-2.875
X8.472Y-3.775
X8.472Y-7.9
X8.522Y-3.675
X8.572Y-5.875
X8.573Y-7.475
X8.622Y-2.875
X8.622Y-3.825
X8.622Y-5.125
X8.622Y-6.225
X8.672Y-2.975
X8.672Y-5.375
X8.672Y-5.475
X8.672Y-7.075
X8.673Y-7.475
X8.722Y-5.875
X8.722Y-6.675
X8.722Y-8.375
X8.772Y-6.025
X8.772Y-7.275
X8.822Y-2.775
X8.822Y-4.075
X8.822Y-5.925
X8.872Y-5.675
X8.922Y-5.175
X9.022Y-4.275
X9.022Y-6.225
X9.022Y-8.525
X9.122Y-3.65
X9.122Y-4.325
X9.172Y-3.775
X9.172Y-4.4
X9.222Y-4.475
X9.272Y-3.825
X9.272Y-4.55
X9.322Y-4.625
X9.372Y-3.625
X9.422Y-4.675
X9.474Y-2.674
X9.522Y-6.375
X9.522Y-6.775
X9.522Y-7.075
X9.522Y-7.775
X9.523Y-2.574
X9.524Y-9.005
X9.572Y-2.975
X9.604Y-9.006
X9.622Y-4.675
X9.6225Y-5.8755
X9.658Y-2.998
X9.672Y-3.525
X9.6725Y-7.923
X9.697Y-8.825
X9.722Y-2.825
X9.722Y-4.375
X9.722Y-6.175
X9.722Y-8.075
X9.7225Y-4.8255
X9.7225Y-5.923
X9.7225Y-6.4755
X9.7225Y-7.3755
X9.772Y-3.574
X9.772Y-6.874
X9.772Y-7.125
X9.772Y-7.675
X9.7725Y-8.4255
X9.824Y-3.876
X9.824Y-7.975
X9.872Y-3.975
X9.8735Y-5.8755
X9.874Y-2.725
X9.922Y-3.475
X9.922Y-4.775
X9.972Y-2.775
X9.972Y-4.625
X10.022Y-2.975
X10.022Y-5.275
X10.022Y-5.675
X10.022Y-6.275
X10.022Y-6.375
X10.022Y-7.675
X10.0225Y-8.373
X10.023Y-5.4725
X10.0725Y-4.973
X10.0725Y-5.823
X10.0725Y-6.123
X10.122Y-6.4235
X10.122Y-6.675
X10.122Y-7.425
X10.1225Y-5.373
X10.1225Y-7.7255
X10.125Y-2.923
X10.172Y-2.5735
X10.172Y-4.5
X10.172Y-6.975
X10.1725Y-6.7755
X10.222Y-2.675
X10.222Y-4.425
X10.222Y-4.575
X10.322Y-4.525
X10.322Y-5.675
X10.322Y-6.575
X10.322Y-6.675
X10.322Y-7.025
X10.3225Y-4.973
X10.3225Y-7.3755
X10.3225Y-8.5255
X10.372Y-4.175
X10.372Y-8.025
X10.374Y-4.323
X10.422Y-4.975
X10.422Y-5.2235
X10.422Y-6.525
X10.422Y-8.124
X10.4225Y-5.3255
X10.425Y-8.3755
X10.472Y-3.375
X10.472Y-3.725
X10.472Y-4.325
X10.52Y-3.875
X10.572Y-3.975
X10.622Y-2.825
X10.622Y-3.724
X10.622Y-5.475
X10.622Y-5.575
X10.622Y-8.625
X10.622Y-8.775
X10.6225Y-8.123
X10.654Y-6.575
X10.672Y-4.025
X10.672Y-5.375
X10.672Y-6.275
X10.672Y-7.725
X10.722Y-2.725
X10.722Y-5.275
X10.722Y-6.025
X10.722Y-6.975
X10.722Y-7.225
X10.722Y-7.525
X10.742Y-6.675
X10.7743Y-3.3737
X10.8225Y-2.773
X10.8225Y-6.973
X10.922Y-5.775
X10.922Y-8.475
X10.923Y-3.275
X11.022Y-8.175
X11.032Y-6.473
X11.122Y-7.975
X11.122Y-8.775
X11.172Y-3.575
X11.172Y-4.975
X11.172Y-7.775
X11.222Y-2.825
X11.222Y-8.525
X11.222Y-8.825
X11.272Y-2.725
X11.272Y-5.375
X11.272Y-5.475
X11.272Y-5.575
X11.272Y-7.225
X11.273Y-3.875
X11.322Y-4.075
X11.322Y-4.625
X11.322Y-4.725
X11.322Y-6.275
X11.322Y-6.525
X11.322Y-8.423
X11.322Y-8.875
X11.3225Y-5.2755
X11.3725Y-2.773
X11.422Y-3.175
X11.422Y-3.5225
X11.422Y-4.975
X11.4225Y-6.973
X11.4722Y-4.0732
X11.521Y-3.174
X11.521Y-5.475
X11.522Y-5.675
X11.522Y-8.325
X11.5683Y-4.0747
X11.572Y-6.975
X11.572Y-7.425
X11.5975Y-8.3755
X11.622Y-3.475
X11.622Y-8.025
X11.6225Y-5.873
X11.672Y-2.975
X11.722Y-3.625
X11.722Y-4.075
X11.722Y-7.975
X11.7225Y-7.773
X11.772Y-3.125
X11.822Y-3.275
X11.822Y-5.375
X11.822Y-5.575
X11.822Y-6.125
X11.8745Y-3.5225
X11.922Y-3.675
X11.922Y-5.776
X11.922Y-8.225
X11.922Y-8.725
X11.947Y-7.325
X11.972Y-2.375
X11.972Y-3.124
X11.972Y-4.825
X11.972Y-6.925
X12.022Y-3.775
X12.054Y-6.925
X12.122Y-2.375
X12.122Y-6.525
X12.122Y-6.675
X12.122Y-7.875
X12.122Y-8.775
X12.1705Y-8.325
X12.172Y-3.025
X12.172Y-6.125
X12.172Y-8.125
X12.222Y-3.125
X12.222Y-3.825
X12.222Y-6.425
X12.222Y-7.575
X12.2225Y-5.973
X12.322Y-2.975
X12.322Y-4.725
X12.322Y-7.825
X12.422Y-3.725
X12.422Y-5.175
X12.422Y-5.575
X12.422Y-6.575
X12.4225Y-2.323
X12.423Y-7.875
X12.472Y-3.475
X12.472Y-7.175
X12.522Y-3.575
X12.522Y-6.874
X12.5225Y-5.4255
X12.5225Y-6.7755
X12.547Y-8.424
X12.572Y-3.174
X12.572Y-3.675
X12.572Y-4.075
X12.572Y-4.875
X12.572Y-7.975
X12.574Y-5.8255
X12.672Y-4.925
X12.6725Y-2.323
X12.673Y-3.175
X12.674Y-3.775
X12.722Y-3.875
X12.722Y-8.625
X12.7225Y-7.923
X12.7225Y-8.3255
X12.724Y-5.925
X12.724Y-6.891
X12.772Y-3.625
X12.772Y-6.975
X12.772Y-8.525
X12.7725Y-7.823
X12.822Y-3.125
X12.83Y-5.669
X12.872Y-3.475
X12.922Y-3.275
X12.922Y-7.875
X12.972Y-4.173
X13.022Y-3.275
X13.022Y-5.015
X13.022Y-5.075
X13.022Y-6.0238
X13.022Y-7.025
X13.097Y-3.925
X13.0975Y-4.023
X13.0995Y-3.125
X13.12Y-5.123
X13.122Y-4.975
X13.122Y-7.775
X13.125Y-8.1755
X13.13Y-4.611
X13.1337Y-4.2607
T3
X1.722Y-3.975
X1.722Y-4.175
X1.822Y-7.975
X1.822Y-8.175
X2.022Y-2.825
X2.022Y-3.025
X2.122Y-2.825
X2.122Y-3.025
X2.222Y-2.825
X2.222Y-3.025
X2.322Y-2.825
X2.322Y-3.025
X2.322Y-7.975
X2.322Y-8.175
X2.422Y-2.825
X2.422Y-3.025
X2.522Y-2.825
X2.522Y-3.025
X2.722Y-2.675
X2.822Y-2.825
X2.822Y-3.025
X2.822Y-7.975
X2.822Y-8.175
X2.922Y-2.675
X2.922Y-2.825
X2.922Y-3.025
X3.022Y-2.675
X3.022Y-2.825
X3.022Y-3.025
X3.122Y-2.825
X3.122Y-3.025
X3.222Y-2.675
X3.222Y-2.825
X3.222Y-3.025
X3.322Y-2.825
X3.322Y-3.025
X3.322Y-7.975
X3.322Y-8.175
X3.422Y-2.825
X3.422Y-3.025
X3.622Y-2.825
X3.622Y-3.025
X3.722Y-2.825
X3.722Y-3.025
X3.822Y-2.675
X3.822Y-2.825
X3.822Y-3.025
X3.822Y-7.975
X3.822Y-8.175
X4.022Y-2.675
X4.122Y-2.675
X4.122Y-2.825
X4.122Y-3.025
X4.322Y-2.675
X4.322Y-2.825
X4.322Y-3.025
X4.322Y-3.575
X4.322Y-7.975
X4.322Y-8.175
X4.522Y-2.675
X4.522Y-3.575
X4.622Y-2.825
X4.622Y-3.025
X4.622Y-3.575
X4.722Y-2.675
X4.822Y-2.825
X4.822Y-3.025
X4.822Y-3.575
X4.822Y-7.975
X4.822Y-8.175
X4.922Y-2.675
X5.022Y-2.825
X5.022Y-3.025
X5.122Y-2.675
X5.322Y-7.975
X5.322Y-8.175
X5.324Y-2.675
X5.524Y-2.675
X5.8196Y-6.575
X5.822Y-5.425
X5.822Y-5.525
X5.822Y-5.625
X5.822Y-5.725
X5.822Y-6.174
X5.822Y-6.376
X5.822Y-6.475
X5.822Y-6.675
X5.822Y-7.075
X5.822Y-7.175
X5.822Y-7.675
X5.822Y-7.775
X5.822Y-7.875
X5.822Y-7.9725
X5.822Y-8.075
X5.822Y-8.175
X5.822Y-8.275
X5.822Y-8.375
X5.822Y-8.475
X5.822Y-8.575
X5.822Y-8.675
X5.822Y-8.775
X5.822Y-8.875
X5.8225Y-7.3755
X5.823Y-5.075
X5.823Y-6.074
X5.823Y-6.275
X5.824Y-5.174
X6.0196Y-6.575
X6.022Y-2.575
X6.022Y-2.775
X6.022Y-5.425
X6.022Y-5.525
X6.022Y-5.625
X6.022Y-5.725
X6.022Y-6.174
X6.022Y-6.376
X6.022Y-6.475
X6.022Y-6.675
X6.022Y-7.075
X6.022Y-7.175
X6.022Y-7.675
X6.022Y-7.775
X6.022Y-7.875
X6.022Y-7.9725
X6.022Y-8.075
X6.022Y-8.175
X6.022Y-8.275
X6.022Y-8.375
X6.022Y-8.475
X6.022Y-8.575
X6.022Y-8.675
X6.022Y-8.775
X6.022Y-8.875
X6.0225Y-7.3755
X6.023Y-5.075
X6.023Y-6.074
X6.023Y-6.275
X6.024Y-5.174
X6.122Y-2.575
X6.122Y-2.775
X6.222Y-2.575
X6.222Y-2.775
X6.322Y-2.575
X6.322Y-2.775
X6.322Y-5.575
X6.322Y-6.075
X6.422Y-2.575
X6.422Y-2.775
X6.522Y-2.575
X6.522Y-2.775
X6.522Y-5.575
X6.522Y-6.075
X6.622Y-2.575
X6.622Y-2.775
X6.722Y-2.575
X6.722Y-2.775
X6.822Y-2.575
X6.822Y-2.775
X6.922Y-2.575
X6.922Y-2.775
X7.022Y-2.575
X7.022Y-2.775
X7.122Y-2.575
X7.122Y-2.775
X7.222Y-2.575
X7.222Y-2.775
X7.322Y-2.575
X7.322Y-2.775
X7.422Y-2.575
X7.422Y-2.775
X7.5225Y-3.0755
X7.5225Y-3.1755
X7.8225Y-3.0755
X7.8225Y-3.1755
X10.222Y-5.075
X10.222Y-5.275
X10.2225Y-5.175
X10.2225Y-5.375
X10.2225Y-5.4755
X10.2225Y-5.573
X10.2225Y-5.673
X10.2225Y-5.773
X10.522Y-5.075
X10.522Y-5.275
X10.5225Y-5.175
X10.5225Y-5.375
X10.5225Y-5.4755
X10.5225Y-5.573
X10.5225Y-5.673
X10.5225Y-5.773
X10.572Y-4.175
X10.572Y-4.375
X10.622Y-2.975
X10.622Y-3.175
X10.672Y-4.174
X10.672Y-4.374
X10.722Y-2.975
X10.722Y-3.175
X10.772Y-4.175
X10.772Y-4.375
X10.822Y-2.975
X10.822Y-3.175
X10.872Y-4.175
X10.872Y-4.375
X10.972Y-4.175
X10.972Y-4.375
X11.022Y-2.975
X11.022Y-3.175
X11.072Y-4.175
X11.072Y-4.375
X11.172Y-4.175
X11.172Y-4.375
X11.272Y-4.175
X11.272Y-4.375
X11.472Y-4.175
X11.472Y-4.375
X11.572Y-4.175
X11.572Y-4.375
X11.672Y-4.175
X11.672Y-4.375
X11.772Y-4.175
X11.772Y-4.375
X11.872Y-4.175
X11.872Y-4.375
X11.972Y-4.175
X11.972Y-4.375
X12.072Y-4.175
X12.072Y-4.375
X12.172Y-4.175
X12.172Y-4.375
X12.272Y-4.175
X12.272Y-4.375
X12.472Y-4.175
X12.472Y-4.375
X12.472Y-7.075
X12.472Y-7.275
X12.474Y-8.175
X12.474Y-8.375
X12.572Y-4.175
X12.572Y-4.375
X12.672Y-4.175
X12.672Y-4.375
X12.772Y-4.175
X12.772Y-4.375
X12.872Y-4.175
X12.872Y-4.375
X13.022Y-8.075
X13.022Y-8.275
T4
X2.622Y-2.825
X2.622Y-2.925
X2.722Y-2.825
X3.924Y-2.925
X4.024Y-2.925
X4.024Y-3.025
T5
X11.423Y-2.273
X11.623Y-2.273
X11.798Y-2.273
X11.998Y-2.273
T6
X1.722Y-3.275
X1.722Y-3.575
X1.722Y-3.6781
X1.722Y-3.8781
X1.722Y-4.275
X1.722Y-4.575
X1.822Y-2.8281
X1.822Y-3.0281
X1.822Y-3.175
X1.822Y-3.475
X1.822Y-3.575
X1.822Y-3.675
X1.822Y-3.975
X1.822Y-4.1797
X1.822Y-4.4797
X1.922Y-2.775
X1.922Y-3.075
X1.922Y-3.175
X1.922Y-3.475
X1.922Y-3.675
X1.922Y-3.975
X1.922Y-4.075
X1.922Y-4.175
X1.922Y-4.475
X1.922Y-4.975
X1.922Y-5.075
X1.922Y-5.175
X1.922Y-5.275
X1.922Y-5.375
X1.922Y-5.475
X1.922Y-5.575
X1.922Y-5.675
X1.922Y-5.775
X1.922Y-5.975
X1.922Y-6.075
X1.922Y-6.175
X1.922Y-6.275
X1.922Y-6.375
X1.922Y-6.475
X1.922Y-6.575
X1.922Y-6.675
X1.922Y-6.775
X1.922Y-6.875
X1.922Y-6.975
X1.922Y-7.075
X1.922Y-7.175
X1.922Y-7.275
X1.922Y-7.375
X1.922Y-7.475
X1.922Y-7.575
X1.922Y-7.675
X1.922Y-7.775
X1.922Y-7.875
X1.922Y-7.9755
X1.922Y-8.075
X1.922Y-8.175
X1.922Y-8.275
X1.922Y-8.375
X1.922Y-8.475
X1.922Y-8.575
X1.922Y-8.675
X1.922Y-8.775
X1.922Y-8.875
X1.9267Y-5.875
X2.022Y-3.175
X2.022Y-3.475
X2.022Y-3.675
X2.022Y-3.975
X2.022Y-4.175
X2.022Y-4.475
X2.122Y-3.175
X2.122Y-3.475
X2.122Y-3.575
X2.122Y-3.675
X2.122Y-3.975
X2.122Y-4.175
X2.122Y-4.475
X2.222Y-3.175
X2.222Y-3.475
X2.222Y-3.675
X2.222Y-3.975
X2.222Y-4.075
X2.222Y-4.175
X2.222Y-4.475
X2.222Y-4.975
X2.222Y-5.075
X2.222Y-5.175
X2.222Y-5.275
X2.222Y-5.375
X2.222Y-5.475
X2.222Y-5.575
X2.222Y-5.675
X2.222Y-5.775
X2.222Y-5.975
X2.222Y-6.075
X2.222Y-6.175
X2.222Y-6.275
X2.222Y-6.375
X2.222Y-6.475
X2.222Y-6.575
X2.222Y-6.675
X2.222Y-6.775
X2.222Y-6.875
X2.222Y-6.975
X2.222Y-7.075
X2.222Y-7.175
X2.222Y-7.275
X2.222Y-7.375
X2.222Y-7.475
X2.222Y-7.575
X2.222Y-7.675
X2.222Y-7.775
X2.222Y-7.875
X2.222Y-7.9755
X2.222Y-8.075
X2.222Y-8.175
X2.222Y-8.275
X2.222Y-8.375
X2.222Y-8.475
X2.222Y-8.575
X2.222Y-8.675
X2.222Y-8.775
X2.222Y-8.875
X2.2267Y-5.875
X2.322Y-3.175
X2.322Y-3.475
X2.322Y-3.675
X2.322Y-3.975
X2.322Y-4.075
X2.322Y-4.175
X2.322Y-4.475
X2.422Y-3.175
X2.422Y-3.475
X2.422Y-3.675
X2.422Y-3.975
X2.422Y-4.175
X2.422Y-4.475
X2.422Y-5.075
X2.422Y-5.175
X2.422Y-5.275
X2.422Y-5.375
X2.422Y-5.475
X2.422Y-5.575
X2.422Y-5.675
X2.422Y-5.775
X2.422Y-5.875
X2.422Y-6.075
X2.422Y-6.175
X2.422Y-6.275
X2.422Y-6.375
X2.422Y-6.475
X2.422Y-6.575
X2.422Y-6.675
X2.422Y-6.775
X2.422Y-7.075
X2.422Y-7.175
X2.422Y-7.275
X2.422Y-7.375
X2.422Y-7.475
X2.422Y-7.575
X2.422Y-7.675
X2.422Y-7.775
X2.422Y-8.075
X2.422Y-8.175
X2.422Y-8.275
X2.422Y-8.375
X2.422Y-8.475
X2.422Y-8.575
X2.422Y-8.675
X2.422Y-8.775
X2.422Y-8.875
X2.4247Y-7.875
X2.522Y-3.175
X2.522Y-3.475
X2.522Y-3.675
X2.522Y-3.975
X2.522Y-4.175
X2.522Y-4.475
X2.622Y-4.075
X2.722Y-3.175
X2.722Y-3.475
X2.722Y-3.675
X2.722Y-3.975
X2.722Y-4.175
X2.722Y-4.475
X2.722Y-5.075
X2.722Y-5.175
X2.722Y-5.275
X2.722Y-5.375
X2.722Y-5.475
X2.722Y-5.575
X2.722Y-5.675
X2.722Y-5.775
X2.722Y-5.875
X2.722Y-6.075
X2.722Y-6.175
X2.722Y-6.275
X2.722Y-6.375
X2.722Y-6.475
X2.722Y-6.575
X2.722Y-6.675
X2.722Y-6.775
X2.722Y-7.075
X2.722Y-7.175
X2.722Y-7.275
X2.722Y-7.375
X2.722Y-7.475
X2.722Y-7.575
X2.722Y-7.675
X2.722Y-7.775
X2.722Y-8.075
X2.722Y-8.175
X2.722Y-8.275
X2.722Y-8.375
X2.722Y-8.475
X2.722Y-8.575
X2.722Y-8.675
X2.722Y-8.775
X2.722Y-8.875
X2.7247Y-7.875
X2.822Y-3.175
X2.822Y-3.475
X2.822Y-3.675
X2.822Y-3.975
X2.822Y-4.175
X2.822Y-4.475
X2.922Y-3.175
X2.922Y-3.475
X2.922Y-3.675
X2.922Y-3.975
X2.922Y-4.175
X2.922Y-4.475
X2.922Y-5.075
X2.922Y-5.175
X2.922Y-5.275
X2.922Y-5.375
X2.922Y-5.475
X2.922Y-5.575
X2.922Y-5.675
X2.922Y-5.775
X2.922Y-6.075
X2.922Y-6.175
X2.922Y-6.275
X2.922Y-6.375
X2.922Y-6.475
X2.922Y-6.575
X2.922Y-6.675
X2.922Y-6.775
X2.922Y-6.875
X2.922Y-7.075
X2.922Y-7.175
X2.922Y-7.275
X2.922Y-7.375
X2.922Y-7.475
X2.922Y-7.575
X2.922Y-7.675
X2.922Y-7.775
X2.922Y-8.075
X2.922Y-8.175
X2.922Y-8.275
X2.922Y-8.375
X2.922Y-8.475
X2.922Y-8.575
X2.922Y-8.675
X2.922Y-8.775
X2.922Y-8.875
X3.022Y-3.175
X3.022Y-3.475
X3.022Y-3.675
X3.022Y-3.975
X3.022Y-4.175
X3.022Y-4.475
X3.122Y-3.175
X3.122Y-3.475
X3.122Y-3.675
X3.122Y-3.975
X3.122Y-4.175
X3.122Y-4.475
X3.222Y-3.175
X3.222Y-3.475
X3.222Y-3.675
X3.222Y-3.975
X3.222Y-4.175
X3.222Y-4.475
X3.222Y-5.075
X3.222Y-5.175
X3.222Y-5.275
X3.222Y-5.375
X3.222Y-5.475
X3.222Y-5.575
X3.222Y-5.675
X3.222Y-5.775
X3.222Y-6.075
X3.222Y-6.175
X3.222Y-6.275
X3.222Y-6.375
X3.222Y-6.475
X3.222Y-6.575
X3.222Y-6.675
X3.222Y-6.775
X3.222Y-6.875
X3.222Y-7.075
X3.222Y-7.175
X3.222Y-7.275
X3.222Y-7.375
X3.222Y-7.475
X3.222Y-7.575
X3.222Y-7.675
X3.222Y-7.775
X3.222Y-8.075
X3.222Y-8.175
X3.222Y-8.275
X3.222Y-8.375
X3.222Y-8.475
X3.222Y-8.575
X3.222Y-8.675
X3.222Y-8.775
X3.222Y-8.875
X3.322Y-3.175
X3.322Y-3.475
X3.322Y-3.675
X3.322Y-3.975
X3.322Y-4.175
X3.322Y-4.475
X3.422Y-5.075
X3.422Y-5.175
X3.422Y-5.275
X3.422Y-5.375
X3.422Y-5.475
X3.422Y-5.575
X3.422Y-5.675
X3.422Y-5.775
X3.422Y-5.875
X3.422Y-6.075
X3.422Y-6.175
X3.422Y-6.275
X3.422Y-6.375
X3.422Y-6.475
X3.422Y-6.575
X3.422Y-6.675
X3.422Y-6.775
X3.422Y-7.075
X3.422Y-7.175
X3.422Y-7.275
X3.422Y-7.375
X3.422Y-7.475
X3.422Y-7.575
X3.422Y-7.675
X3.422Y-7.775
X3.422Y-7.875
X3.422Y-8.075
X3.422Y-8.175
X3.422Y-8.275
X3.422Y-8.375
X3.422Y-8.475
X3.422Y-8.575
X3.422Y-8.675
X3.422Y-8.775
X3.422Y-8.873
X3.424Y-4.075
X3.424Y-4.275
X3.522Y-3.175
X3.522Y-3.475
X3.522Y-3.675
X3.522Y-3.975
X3.522Y-4.075
X3.522Y-4.675
X3.622Y-3.175
X3.622Y-3.475
X3.622Y-3.675
X3.622Y-3.975
X3.622Y-4.075
X3.622Y-4.675
X3.722Y-3.175
X3.722Y-3.475
X3.722Y-3.675
X3.722Y-3.975
X3.722Y-4.075
X3.722Y-4.675
X3.722Y-5.075
X3.722Y-5.175
X3.722Y-5.275
X3.722Y-5.375
X3.722Y-5.475
X3.722Y-5.575
X3.722Y-5.675
X3.722Y-5.775
X3.722Y-5.875
X3.722Y-6.075
X3.722Y-6.175
X3.722Y-6.275
X3.722Y-6.375
X3.722Y-6.475
X3.722Y-6.575
X3.722Y-6.675
X3.722Y-6.775
X3.722Y-7.075
X3.722Y-7.175
X3.722Y-7.275
X3.722Y-7.375
X3.722Y-7.475
X3.722Y-7.575
X3.722Y-7.675
X3.722Y-7.775
X3.722Y-7.875
X3.722Y-8.075
X3.722Y-8.175
X3.722Y-8.275
X3.722Y-8.375
X3.722Y-8.475
X3.722Y-8.575
X3.722Y-8.675
X3.722Y-8.775
X3.722Y-8.873
X3.822Y-3.175
X3.822Y-3.475
X3.822Y-3.675
X3.822Y-3.975
X3.822Y-4.075
X3.822Y-4.675
X3.922Y-3.175
X3.922Y-3.475
X3.922Y-3.675
X3.922Y-3.975
X3.922Y-4.075
X3.922Y-4.675
X3.922Y-5.075
X3.922Y-5.175
X3.922Y-5.275
X3.922Y-5.375
X3.922Y-5.475
X3.922Y-5.575
X3.922Y-5.675
X3.922Y-5.775
X3.922Y-6.075
X3.922Y-6.175
X3.922Y-6.275
X3.922Y-6.375
X3.922Y-6.475
X3.922Y-6.575
X3.922Y-6.675
X3.922Y-6.775
X3.922Y-6.875
X3.922Y-7.075
X3.922Y-7.175
X3.922Y-7.275
X3.922Y-7.375
X3.922Y-7.475
X3.922Y-7.575
X3.922Y-7.675
X3.922Y-7.775
X3.922Y-8.075
X3.922Y-8.175
X3.922Y-8.275
X3.922Y-8.375
X3.922Y-8.475
X3.922Y-8.575
X3.922Y-8.675
X3.922Y-8.775
X3.922Y-8.875
X4.022Y-3.175
X4.022Y-3.475
X4.022Y-3.675
X4.022Y-3.975
X4.022Y-4.075
X4.022Y-4.675
X4.122Y-3.175
X4.122Y-3.475
X4.122Y-3.675
X4.122Y-3.975
X4.122Y-4.075
X4.122Y-4.675
X4.222Y-2.775
X4.222Y-3.075
X4.222Y-4.075
X4.222Y-4.675
X4.222Y-5.075
X4.222Y-5.175
X4.222Y-5.275
X4.222Y-5.375
X4.222Y-5.475
X4.222Y-5.575
X4.222Y-5.675
X4.222Y-5.775
X4.222Y-6.075
X4.222Y-6.175
X4.222Y-6.275
X4.222Y-6.375
X4.222Y-6.475
X4.222Y-6.575
X4.222Y-6.675
X4.222Y-6.775
X4.222Y-6.875
X4.222Y-7.075
X4.222Y-7.175
X4.222Y-7.275
X4.222Y-7.375
X4.222Y-7.475
X4.222Y-7.575
X4.222Y-7.675
X4.222Y-7.775
X4.222Y-8.075
X4.222Y-8.175
X4.222Y-8.275
X4.222Y-8.375
X4.222Y-8.475
X4.222Y-8.575
X4.222Y-8.675
X4.222Y-8.775
X4.222Y-8.875
X4.322Y-3.175
X4.322Y-3.475
X4.322Y-3.675
X4.322Y-3.975
X4.322Y-4.075
X4.322Y-4.675
X4.422Y-2.8234
X4.422Y-3.0234
X4.422Y-3.175
X4.422Y-3.475
X4.422Y-3.675
X4.422Y-3.975
X4.422Y-4.075
X4.422Y-4.675
X4.422Y-5.075
X4.422Y-5.175
X4.422Y-5.275
X4.422Y-5.375
X4.422Y-5.475
X4.422Y-5.575
X4.422Y-5.675
X4.422Y-5.775
X4.422Y-5.875
X4.422Y-6.075
X4.422Y-6.175
X4.422Y-6.275
X4.422Y-6.375
X4.422Y-6.475
X4.422Y-6.575
X4.422Y-6.675
X4.422Y-6.775
X4.422Y-7.075
X4.422Y-7.175
X4.422Y-7.275
X4.422Y-7.375
X4.422Y-7.475
X4.422Y-7.575
X4.422Y-7.675
X4.422Y-7.775
X4.422Y-7.875
X4.422Y-8.075
X4.422Y-8.175
X4.422Y-8.275
X4.422Y-8.375
X4.422Y-8.475
X4.422Y-8.575
X4.422Y-8.675
X4.422Y-8.775
X4.422Y-8.875
X4.522Y-2.775
X4.522Y-3.075
X4.522Y-3.175
X4.522Y-3.475
X4.522Y-3.675
X4.522Y-3.975
X4.522Y-4.075
X4.522Y-4.675
X4.622Y-3.175
X4.622Y-3.475
X4.622Y-3.675
X4.622Y-3.975
X4.622Y-4.075
X4.622Y-4.675
X4.722Y-2.775
X4.722Y-3.075
X4.722Y-3.175
X4.722Y-3.475
X4.722Y-3.675
X4.722Y-3.975
X4.722Y-5.075
X4.722Y-5.175
X4.722Y-5.275
X4.722Y-5.375
X4.722Y-5.475
X4.722Y-5.575
X4.722Y-5.675
X4.722Y-5.775
X4.722Y-5.875
X4.722Y-6.075
X4.722Y-6.175
X4.722Y-6.275
X4.722Y-6.375
X4.722Y-6.475
X4.722Y-6.575
X4.722Y-6.675
X4.722Y-6.775
X4.722Y-7.075
X4.722Y-7.175
X4.722Y-7.275
X4.722Y-7.375
X4.722Y-7.475
X4.722Y-7.575
X4.722Y-7.675
X4.722Y-7.775
X4.722Y-7.875
X4.722Y-8.075
X4.722Y-8.175
X4.722Y-8.275
X4.722Y-8.375
X4.722Y-8.475
X4.722Y-8.575
X4.722Y-8.675
X4.722Y-8.775
X4.722Y-8.875
X4.822Y-3.175
X4.822Y-3.475
X4.822Y-3.675
X4.822Y-3.975
X4.922Y-2.775
X4.922Y-3.075
X4.922Y-3.175
X4.922Y-3.475
X4.922Y-3.675
X4.922Y-3.975
X4.922Y-5.075
X4.922Y-5.175
X4.922Y-5.275
X4.922Y-5.375
X4.922Y-5.475
X4.922Y-5.575
X4.922Y-5.675
X4.922Y-5.775
X4.922Y-6.075
X4.922Y-6.175
X4.922Y-6.275
X4.922Y-6.375
X4.922Y-6.475
X4.922Y-6.575
X4.922Y-6.675
X4.922Y-6.775
X4.922Y-6.875
X4.922Y-7.075
X4.922Y-7.175
X4.922Y-7.275
X4.922Y-7.375
X4.922Y-7.475
X4.922Y-7.575
X4.922Y-7.675
X4.922Y-7.775
X4.922Y-8.075
X4.922Y-8.175
X4.922Y-8.275
X4.922Y-8.375
X4.922Y-8.475
X4.922Y-8.575
X4.922Y-8.675
X4.922Y-8.775
X4.922Y-8.875
X5.022Y-4.075
X5.022Y-4.675
X5.122Y-2.8234
X5.122Y-3.0234
X5.122Y-4.075
X5.122Y-4.675
X5.222Y-2.775
X5.222Y-3.075
X5.222Y-4.075
X5.222Y-4.675
X5.222Y-5.075
X5.222Y-5.175
X5.222Y-5.275
X5.222Y-5.375
X5.222Y-5.475
X5.222Y-5.575
X5.222Y-5.675
X5.222Y-5.775
X5.222Y-6.075
X5.222Y-6.175
X5.222Y-6.275
X5.222Y-6.375
X5.222Y-6.475
X5.222Y-6.575
X5.222Y-6.675
X5.222Y-6.775
X5.222Y-6.875
X5.222Y-7.075
X5.222Y-7.175
X5.222Y-7.275
X5.222Y-7.375
X5.222Y-7.475
X5.222Y-7.575
X5.222Y-7.675
X5.222Y-7.775
X5.222Y-8.075
X5.222Y-8.175
X5.222Y-8.275
X5.222Y-8.375
X5.222Y-8.475
X5.222Y-8.575
X5.222Y-8.675
X5.222Y-8.775
X5.222Y-8.875
X5.322Y-2.775
X5.322Y-3.075
X5.322Y-4.075
X5.322Y-4.675
X5.372Y-3.275
X5.372Y-3.4719
X5.422Y-2.775
X5.422Y-3.075
X5.422Y-4.075
X5.422Y-4.675
X5.422Y-5.075
X5.422Y-5.175
X5.422Y-5.275
X5.422Y-5.375
X5.422Y-5.475
X5.422Y-5.575
X5.422Y-5.675
X5.422Y-5.775
X5.422Y-5.875
X5.422Y-6.075
X5.422Y-6.175
X5.422Y-6.275
X5.422Y-6.375
X5.422Y-6.475
X5.422Y-6.575
X5.422Y-6.675
X5.422Y-6.775
X5.422Y-7.075
X5.422Y-7.175
X5.422Y-7.275
X5.422Y-7.375
X5.422Y-7.475
X5.422Y-7.575
X5.422Y-7.675
X5.422Y-7.775
X5.422Y-7.875
X5.422Y-8.075
X5.422Y-8.175
X5.422Y-8.275
X5.422Y-8.375
X5.422Y-8.475
X5.422Y-8.575
X5.422Y-8.675
X5.422Y-8.775
X5.424Y-8.875
X5.522Y-2.775
X5.522Y-3.075
X5.522Y-4.075
X5.522Y-4.675
X5.622Y-3.175
X5.622Y-3.475
X5.622Y-4.075
X5.622Y-4.675
X5.624Y-2.8261
X5.624Y-3.0261
X5.722Y-2.475
X5.722Y-2.775
X5.722Y-4.075
X5.722Y-4.675
X5.722Y-5.075
X5.722Y-5.175
X5.722Y-5.275
X5.722Y-5.375
X5.722Y-5.475
X5.722Y-5.575
X5.722Y-5.675
X5.722Y-5.775
X5.722Y-5.875
X5.722Y-6.075
X5.722Y-6.175
X5.722Y-6.275
X5.722Y-6.375
X5.722Y-6.475
X5.722Y-6.575
X5.722Y-6.675
X5.722Y-6.775
X5.722Y-7.075
X5.722Y-7.175
X5.722Y-7.275
X5.722Y-7.375
X5.722Y-7.475
X5.722Y-7.575
X5.722Y-7.675
X5.722Y-7.775
X5.722Y-7.875
X5.722Y-8.075
X5.722Y-8.175
X5.722Y-8.275
X5.722Y-8.375
X5.722Y-8.475
X5.722Y-8.575
X5.722Y-8.675
X5.722Y-8.775
X5.724Y-8.875
X5.8189Y-5.975
X5.822Y-2.475
X5.822Y-2.775
X5.822Y-4.075
X5.822Y-4.675
X5.8251Y-5.875
X5.8251Y-7.275
X5.8251Y-7.475
X5.8251Y-7.575
X5.922Y-4.075
X5.922Y-4.675
X5.922Y-4.775
X5.922Y-4.975
X6.0189Y-5.975
X6.022Y-4.075
X6.022Y-4.675
X6.0251Y-5.875
X6.0251Y-7.275
X6.0251Y-7.475
X6.0251Y-7.575
X6.122Y-4.075
X6.122Y-4.675
X6.1725Y-5.7301
X6.1725Y-5.923
X6.222Y-4.075
X6.222Y-4.675
X6.322Y-4.075
X6.322Y-4.675
X6.322Y-5.175
X6.322Y-5.475
X6.322Y-5.675
X6.322Y-5.975
X6.322Y-6.175
X6.322Y-6.475
X6.322Y-6.675
X6.322Y-6.975
X6.322Y-7.175
X6.322Y-7.475
X6.322Y-7.675
X6.322Y-7.975
X6.322Y-8.175
X6.322Y-8.475
X6.422Y-4.075
X6.422Y-4.675
X6.422Y-5.175
X6.422Y-5.475
X6.422Y-5.675
X6.422Y-5.975
X6.422Y-6.175
X6.422Y-6.475
X6.422Y-6.675
X6.422Y-6.975
X6.422Y-7.175
X6.422Y-7.475
X6.422Y-7.675
X6.422Y-7.975
X6.422Y-8.175
X6.422Y-8.475
X6.522Y-4.075
X6.522Y-4.675
X6.522Y-5.175
X6.522Y-5.475
X6.522Y-5.675
X6.522Y-5.975
X6.522Y-6.175
X6.522Y-6.475
X6.522Y-6.675
X6.522Y-6.975
X6.522Y-7.175
X6.522Y-7.475
X6.522Y-7.675
X6.522Y-7.975
X6.522Y-8.175
X6.522Y-8.475
X6.622Y-4.075
X6.622Y-4.675
X6.622Y-5.175
X6.622Y-5.475
X6.622Y-5.675
X6.622Y-5.975
X6.622Y-6.175
X6.622Y-6.475
X6.622Y-6.675
X6.622Y-6.975
X6.622Y-7.175
X6.622Y-7.475
X6.622Y-7.675
X6.622Y-7.975
X6.622Y-8.175
X6.622Y-8.475
X6.722Y-4.075
X6.722Y-4.675
X6.722Y-5.175
X6.722Y-5.475
X6.722Y-5.675
X6.722Y-5.975
X6.722Y-6.175
X6.722Y-6.475
X6.722Y-6.675
X6.722Y-6.975
X6.722Y-7.175
X6.722Y-7.475
X6.722Y-7.675
X6.722Y-7.975
X6.722Y-8.175
X6.722Y-8.475
X6.822Y-4.075
X6.822Y-4.675
X6.822Y-5.175
X6.822Y-5.475
X6.822Y-5.675
X6.822Y-5.975
X6.822Y-6.175
X6.822Y-6.475
X6.822Y-6.675
X6.822Y-6.975
X6.822Y-7.175
X6.822Y-7.475
X6.822Y-7.675
X6.822Y-7.975
X6.822Y-8.175
X6.822Y-8.475
X6.922Y-4.075
X6.922Y-4.675
X6.922Y-5.175
X6.922Y-5.475
X6.922Y-5.675
X6.922Y-5.975
X6.922Y-6.175
X6.922Y-6.475
X6.922Y-6.675
X6.922Y-6.975
X6.922Y-7.175
X6.922Y-7.475
X6.922Y-7.675
X6.922Y-7.975
X6.922Y-8.175
X6.922Y-8.475
X7.222Y-3.375
X7.222Y-3.475
X7.222Y-3.575
X7.222Y-3.675
X7.222Y-3.775
X7.222Y-3.875
X7.222Y-3.975
X7.222Y-4.075
X7.222Y-4.175
X7.222Y-4.275
X7.222Y-4.375
X7.222Y-4.475
X7.222Y-4.575
X7.222Y-4.675
X7.222Y-5.175
X7.222Y-5.475
X7.222Y-5.675
X7.222Y-5.975
X7.222Y-6.175
X7.222Y-6.475
X7.222Y-6.675
X7.222Y-6.975
X7.222Y-7.175
X7.222Y-7.475
X7.222Y-7.675
X7.222Y-7.975
X7.222Y-8.175
X7.222Y-8.475
X7.322Y-5.175
X7.322Y-5.475
X7.322Y-5.675
X7.322Y-5.975
X7.322Y-6.175
X7.322Y-6.475
X7.322Y-6.675
X7.322Y-6.975
X7.322Y-7.175
X7.322Y-7.475
X7.322Y-7.675
X7.322Y-7.975
X7.322Y-8.175
X7.322Y-8.475
X7.422Y-5.175
X7.422Y-5.475
X7.422Y-5.675
X7.422Y-5.975
X7.422Y-6.175
X7.422Y-6.475
X7.422Y-6.675
X7.422Y-6.975
X7.422Y-7.175
X7.422Y-7.475
X7.422Y-7.675
X7.422Y-7.975
X7.422Y-8.175
X7.422Y-8.475
X7.522Y-2.275
X7.522Y-2.375
X7.522Y-2.475
X7.522Y-2.575
X7.522Y-2.675
X7.522Y-2.775
X7.522Y-2.875
X7.522Y-2.975
X7.522Y-5.175
X7.522Y-5.475
X7.522Y-5.675
X7.522Y-5.975
X7.522Y-6.175
X7.522Y-6.475
X7.522Y-6.675
X7.522Y-6.975
X7.522Y-7.175
X7.522Y-7.475
X7.522Y-7.675
X7.522Y-7.975
X7.522Y-8.175
X7.522Y-8.475
X7.622Y-5.175
X7.622Y-5.475
X7.622Y-5.675
X7.622Y-5.975
X7.622Y-6.175
X7.622Y-6.475
X7.622Y-6.675
X7.622Y-6.975
X7.622Y-7.175
X7.622Y-7.475
X7.622Y-7.675
X7.622Y-7.975
X7.622Y-8.175
X7.622Y-8.475
X7.722Y-5.175
X7.722Y-5.475
X7.722Y-5.675
X7.722Y-5.975
X7.722Y-6.175
X7.722Y-6.475
X7.722Y-6.675
X7.722Y-6.975
X7.722Y-7.175
X7.722Y-7.475
X7.722Y-7.675
X7.722Y-7.975
X7.722Y-8.175
X7.722Y-8.475
X7.822Y-2.275
X7.822Y-2.375
X7.822Y-2.475
X7.822Y-2.575
X7.822Y-2.675
X7.822Y-2.775
X7.822Y-2.875
X7.822Y-2.975
X7.822Y-3.375
X7.822Y-3.475
X7.822Y-3.575
X7.822Y-3.675
X7.822Y-3.775
X7.822Y-3.875
X7.822Y-3.975
X7.822Y-4.075
X7.822Y-4.175
X7.822Y-4.275
X7.822Y-4.375
X7.822Y-4.475
X7.822Y-4.575
X7.822Y-4.675
X7.822Y-5.175
X7.822Y-5.475
X7.822Y-5.675
X7.822Y-5.975
X7.822Y-6.175
X7.822Y-6.475
X7.822Y-6.675
X7.822Y-6.975
X7.822Y-7.175
X7.822Y-7.475
X7.822Y-7.675
X7.822Y-7.975
X7.822Y-8.175
X7.822Y-8.475
X7.922Y-5.675
X7.922Y-5.975
X7.922Y-6.175
X7.922Y-6.475
X7.922Y-6.675
X7.922Y-6.975
X7.922Y-7.175
X7.922Y-7.475
X7.922Y-7.675
X7.922Y-7.975
X7.922Y-8.175
X7.922Y-8.475
X8.022Y-8.175
X8.0251Y-2.575
X8.0251Y-3.275
X8.0251Y-4.175
X8.0251Y-4.775
X8.0251Y-5.775
X8.0251Y-6.575
X8.0251Y-7.375
X8.222Y-8.175
X8.2251Y-2.575
X8.2251Y-3.275
X8.2251Y-4.175
X8.2251Y-4.775
X8.2251Y-5.775
X8.2251Y-6.575
X8.2251Y-7.375
X8.322Y-2.575
X8.322Y-3.175
X8.322Y-3.375
X8.322Y-3.975
X8.322Y-4.175
X8.322Y-4.775
X8.322Y-4.975
X8.322Y-5.575
X8.322Y-5.775
X8.322Y-6.375
X8.322Y-6.575
X8.322Y-7.175
X8.322Y-7.375
X8.322Y-7.975
X8.322Y-8.175
X8.322Y-8.775
X8.422Y-2.575
X8.422Y-3.175
X8.422Y-3.375
X8.422Y-3.975
X8.422Y-4.175
X8.422Y-4.775
X8.422Y-4.975
X8.422Y-5.575
X8.422Y-5.775
X8.422Y-6.375
X8.422Y-6.575
X8.422Y-7.175
X8.422Y-7.375
X8.422Y-7.975
X8.422Y-8.175
X8.422Y-8.775
X8.522Y-2.575
X8.522Y-3.175
X8.522Y-3.375
X8.522Y-3.975
X8.522Y-4.175
X8.522Y-4.775
X8.522Y-4.975
X8.522Y-5.575
X8.522Y-5.775
X8.522Y-6.375
X8.522Y-6.575
X8.522Y-7.175
X8.522Y-7.375
X8.522Y-7.975
X8.522Y-8.175
X8.522Y-8.775
X8.622Y-2.575
X8.622Y-3.175
X8.622Y-3.375
X8.622Y-3.975
X8.622Y-4.175
X8.622Y-4.775
X8.622Y-4.975
X8.622Y-5.575
X8.622Y-5.775
X8.622Y-6.375
X8.622Y-6.575
X8.622Y-7.175
X8.622Y-7.375
X8.622Y-7.975
X8.622Y-8.175
X8.622Y-8.775
X8.722Y-2.575
X8.722Y-3.175
X8.722Y-3.375
X8.722Y-3.975
X8.722Y-4.175
X8.722Y-4.775
X8.722Y-4.975
X8.722Y-5.575
X8.722Y-5.775
X8.722Y-6.375
X8.722Y-6.575
X8.722Y-7.175
X8.722Y-7.375
X8.722Y-7.975
X8.722Y-8.175
X8.722Y-8.775
X8.822Y-2.575
X8.822Y-3.175
X8.822Y-3.375
X8.822Y-3.975
X8.822Y-4.175
X8.822Y-4.775
X8.822Y-4.975
X8.822Y-5.575
X8.822Y-5.775
X8.822Y-6.375
X8.822Y-6.575
X8.822Y-7.175
X8.822Y-7.375
X8.822Y-7.975
X8.822Y-8.175
X8.822Y-8.775
X8.922Y-2.575
X8.922Y-3.175
X8.922Y-3.375
X8.922Y-3.975
X8.922Y-4.175
X8.922Y-4.775
X8.922Y-4.975
X8.922Y-5.575
X8.922Y-5.775
X8.922Y-6.375
X8.922Y-6.575
X8.922Y-7.175
X8.922Y-7.375
X8.922Y-7.975
X8.922Y-8.175
X8.922Y-8.775
X9.022Y-2.575
X9.022Y-3.175
X9.022Y-3.375
X9.022Y-3.975
X9.022Y-4.175
X9.022Y-4.775
X9.022Y-4.975
X9.022Y-5.575
X9.022Y-5.775
X9.022Y-6.375
X9.022Y-6.575
X9.022Y-7.175
X9.022Y-7.375
X9.022Y-7.975
X9.022Y-8.175
X9.022Y-8.775
X9.122Y-2.575
X9.122Y-3.175
X9.122Y-3.375
X9.122Y-3.975
X9.122Y-4.175
X9.122Y-4.775
X9.122Y-4.975
X9.122Y-5.575
X9.122Y-5.775
X9.122Y-6.375
X9.122Y-6.575
X9.122Y-7.175
X9.122Y-7.375
X9.122Y-7.975
X9.122Y-8.175
X9.122Y-8.775
X9.222Y-2.575
X9.222Y-3.175
X9.222Y-3.375
X9.222Y-3.975
X9.222Y-4.175
X9.222Y-4.775
X9.222Y-4.975
X9.222Y-5.575
X9.222Y-5.775
X9.222Y-6.375
X9.222Y-6.575
X9.222Y-7.175
X9.222Y-7.375
X9.222Y-7.975
X9.222Y-8.175
X9.222Y-8.775
X9.322Y-2.575
X9.322Y-3.175
X9.322Y-3.375
X9.322Y-3.975
X9.322Y-4.175
X9.322Y-4.775
X9.322Y-4.975
X9.322Y-5.575
X9.322Y-5.775
X9.322Y-6.375
X9.322Y-6.575
X9.322Y-7.175
X9.322Y-7.375
X9.322Y-7.975
X9.322Y-8.175
X9.322Y-8.775
X9.422Y-2.575
X9.422Y-3.175
X9.422Y-3.375
X9.422Y-3.975
X9.422Y-4.175
X9.422Y-4.775
X9.422Y-4.975
X9.422Y-5.575
X9.422Y-5.775
X9.422Y-6.375
X9.422Y-6.575
X9.422Y-7.175
X9.422Y-7.375
X9.422Y-7.975
X9.422Y-8.175
X9.422Y-8.775
X9.622Y-5.075
X9.622Y-5.175
X9.622Y-5.275
X9.622Y-5.375
X9.622Y-5.475
X9.622Y-5.575
X9.622Y-5.675
X9.622Y-5.775
X9.622Y-6.075
X9.622Y-6.175
X9.622Y-6.275
X9.622Y-6.375
X9.622Y-6.475
X9.622Y-6.575
X9.622Y-6.675
X9.622Y-6.775
X9.622Y-7.075
X9.622Y-7.175
X9.622Y-7.275
X9.622Y-7.375
X9.622Y-7.475
X9.622Y-7.575
X9.622Y-7.675
X9.622Y-7.775
X9.622Y-8.075
X9.622Y-8.175
X9.622Y-8.275
X9.622Y-8.375
X9.622Y-8.475
X9.622Y-8.575
X9.622Y-8.675
X9.622Y-8.775
X9.922Y-5.075
X9.922Y-5.175
X9.922Y-5.275
X9.922Y-5.375
X9.922Y-5.475
X9.922Y-5.575
X9.922Y-5.675
X9.922Y-5.775
X9.922Y-6.075
X9.922Y-6.175
X9.922Y-6.275
X9.922Y-6.375
X9.922Y-6.475
X9.922Y-6.575
X9.922Y-6.675
X9.922Y-6.775
X9.922Y-7.075
X9.922Y-7.175
X9.922Y-7.275
X9.922Y-7.375
X9.922Y-7.475
X9.922Y-7.575
X9.922Y-7.675
X9.922Y-7.775
X9.922Y-8.075
X9.922Y-8.175
X9.922Y-8.275
X9.922Y-8.375
X9.922Y-8.475
X9.922Y-8.575
X9.922Y-8.675
X9.922Y-8.775
X10.222Y-6.075
X10.222Y-6.175
X10.222Y-6.275
X10.222Y-6.375
X10.222Y-6.475
X10.222Y-6.575
X10.222Y-6.675
X10.222Y-7.075
X10.222Y-7.175
X10.222Y-7.275
X10.222Y-7.375
X10.222Y-7.475
X10.222Y-7.575
X10.222Y-7.675
X10.222Y-7.775
X10.222Y-8.075
X10.222Y-8.175
X10.222Y-8.275
X10.222Y-8.375
X10.222Y-8.475
X10.222Y-8.575
X10.222Y-8.675
X10.222Y-8.775
X10.522Y-6.075
X10.522Y-6.175
X10.522Y-6.275
X10.522Y-6.375
X10.522Y-6.475
X10.522Y-6.575
X10.522Y-6.675
X10.522Y-7.075
X10.522Y-7.175
X10.522Y-7.275
X10.522Y-7.375
X10.522Y-7.475
X10.522Y-7.575
X10.522Y-7.675
X10.522Y-7.775
X10.522Y-8.075
X10.522Y-8.175
X10.522Y-8.275
X10.522Y-8.375
X10.522Y-8.475
X10.522Y-8.575
X10.522Y-8.675
X10.522Y-8.775
X10.822Y-5.075
X10.822Y-5.175
X10.822Y-5.275
X10.822Y-5.375
X10.822Y-5.475
X10.822Y-5.575
X10.822Y-5.675
X10.822Y-6.075
X10.822Y-6.175
X10.822Y-6.275
X10.822Y-6.375
X10.822Y-6.475
X10.822Y-6.575
X10.822Y-6.675
X10.822Y-7.075
X10.822Y-7.175
X10.822Y-7.275
X10.822Y-7.375
X10.822Y-7.475
X10.822Y-7.575
X10.822Y-7.675
X10.822Y-8.075
X10.822Y-8.175
X10.822Y-8.275
X10.822Y-8.375
X10.822Y-8.475
X10.822Y-8.575
X10.822Y-8.675
X10.922Y-2.975
X10.922Y-3.175
X10.922Y-3.375
X10.922Y-3.975
X11.022Y-3.375
X11.022Y-3.975
X11.122Y-3.375
X11.122Y-3.975
X11.122Y-5.075
X11.122Y-5.175
X11.122Y-5.275
X11.122Y-5.375
X11.122Y-5.475
X11.122Y-5.575
X11.122Y-5.675
X11.122Y-6.075
X11.122Y-6.175
X11.122Y-6.275
X11.122Y-6.375
X11.122Y-6.475
X11.122Y-6.575
X11.122Y-6.675
X11.122Y-7.075
X11.122Y-7.175
X11.122Y-7.275
X11.122Y-7.375
X11.122Y-7.475
X11.122Y-7.575
X11.122Y-7.675
X11.122Y-8.075
X11.122Y-8.175
X11.122Y-8.275
X11.122Y-8.375
X11.122Y-8.475
X11.122Y-8.575
X11.122Y-8.675
X11.222Y-3.375
X11.222Y-3.975
X11.322Y-3.375
X11.322Y-3.975
X11.422Y-3.375
X11.422Y-3.975
X11.422Y-5.075
X11.422Y-5.175
X11.422Y-5.275
X11.422Y-5.375
X11.422Y-5.475
X11.422Y-5.575
X11.422Y-5.675
X11.422Y-6.075
X11.422Y-6.175
X11.422Y-6.275
X11.422Y-6.375
X11.422Y-6.475
X11.422Y-6.575
X11.422Y-6.675
X11.422Y-7.075
X11.422Y-7.175
X11.422Y-7.275
X11.422Y-7.375
X11.422Y-7.475
X11.422Y-7.575
X11.422Y-7.675
X11.422Y-8.075
X11.422Y-8.175
X11.422Y-8.275
X11.422Y-8.375
X11.422Y-8.475
X11.422Y-8.575
X11.422Y-8.675
X11.522Y-3.375
X11.522Y-3.975
X11.622Y-3.375
X11.622Y-3.975
X11.722Y-3.375
X11.722Y-3.975
X11.722Y-5.075
X11.722Y-5.175
X11.722Y-5.275
X11.722Y-5.375
X11.722Y-5.475
X11.722Y-5.575
X11.722Y-5.675
X11.722Y-6.075
X11.722Y-6.175
X11.722Y-6.275
X11.722Y-6.375
X11.722Y-6.475
X11.722Y-6.575
X11.722Y-6.675
X11.722Y-7.075
X11.722Y-7.175
X11.722Y-7.275
X11.722Y-7.375
X11.722Y-7.475
X11.722Y-7.575
X11.722Y-7.675
X11.722Y-8.075
X11.722Y-8.175
X11.722Y-8.275
X11.722Y-8.375
X11.722Y-8.475
X11.722Y-8.575
X11.722Y-8.675
X11.822Y-3.375
X11.822Y-3.975
X11.822Y-8.4781
X11.822Y-8.6781
X11.872Y-7.075
X11.872Y-7.375
X11.872Y-7.475
X11.872Y-7.675
X11.922Y-3.375
X11.922Y-3.975
X12.022Y-3.375
X12.022Y-3.975
X12.022Y-5.075
X12.022Y-5.175
X12.022Y-5.275
X12.022Y-5.375
X12.022Y-5.475
X12.022Y-5.575
X12.022Y-5.675
X12.022Y-6.075
X12.022Y-6.175
X12.022Y-6.275
X12.022Y-6.375
X12.022Y-6.475
X12.022Y-6.575
X12.022Y-6.675
X12.022Y-7.075
X12.022Y-7.175
X12.022Y-7.275
X12.022Y-7.375
X12.022Y-7.475
X12.022Y-7.575
X12.022Y-7.675
X12.022Y-8.075
X12.022Y-8.175
X12.022Y-8.275
X12.022Y-8.375
X12.022Y-8.475
X12.022Y-8.575
X12.022Y-8.675
X12.122Y-3.375
X12.122Y-3.975
X12.222Y-3.375
X12.222Y-3.975
X12.322Y-3.375
X12.322Y-3.975
X12.322Y-5.075
X12.322Y-5.175
X12.322Y-5.275
X12.322Y-5.375
X12.322Y-5.475
X12.322Y-5.575
X12.322Y-5.675
X12.322Y-6.075
X12.322Y-6.175
X12.322Y-6.275
X12.322Y-6.375
X12.322Y-6.475
X12.322Y-6.575
X12.322Y-6.675
X12.322Y-7.075
X12.322Y-7.175
X12.322Y-7.275
X12.322Y-7.375
X12.322Y-7.475
X12.322Y-7.575
X12.322Y-7.675
X12.322Y-8.075
X12.322Y-8.175
X12.322Y-8.275
X12.322Y-8.375
X12.322Y-8.475
X12.322Y-8.575
X12.322Y-8.675
X12.422Y-3.375
X12.422Y-3.975
X12.422Y-8.475
X12.422Y-8.675
X12.462Y-7.375
X12.462Y-7.675
X12.472Y-7.775
X12.472Y-8.075
X12.522Y-3.375
X12.522Y-3.975
X12.622Y-3.375
X12.622Y-3.975
X12.622Y-5.075
X12.622Y-5.175
X12.622Y-5.275
X12.622Y-5.375
X12.622Y-5.475
X12.622Y-5.575
X12.622Y-5.675
X12.622Y-6.075
X12.622Y-6.175
X12.622Y-6.275
X12.622Y-6.375
X12.622Y-6.475
X12.622Y-6.575
X12.622Y-6.675
X12.622Y-6.775
X12.622Y-7.075
X12.622Y-7.175
X12.622Y-7.275
X12.622Y-7.375
X12.622Y-7.475
X12.622Y-7.575
X12.622Y-7.675
X12.622Y-7.775
X12.622Y-8.075
X12.622Y-8.175
X12.622Y-8.275
X12.622Y-8.375
X12.622Y-8.475
X12.622Y-8.575
X12.622Y-8.675
X12.722Y-3.375
X12.722Y-3.975
X12.822Y-3.375
X12.822Y-3.975
X12.922Y-5.075
X12.922Y-5.175
X12.922Y-5.275
X12.922Y-5.375
X12.922Y-5.475
X12.922Y-5.575
X12.922Y-5.675
X12.922Y-6.075
X12.922Y-6.175
X12.922Y-6.275
X12.922Y-6.375
X12.922Y-6.475
X12.922Y-6.575
X12.922Y-6.675
X12.922Y-6.775
X12.922Y-7.075
X12.922Y-7.175
X12.922Y-7.275
X12.922Y-7.375
X12.922Y-7.475
X12.922Y-7.575
X12.922Y-7.675
X12.922Y-7.775
X12.922Y-8.075
X12.922Y-8.175
X12.922Y-8.275
X12.922Y-8.375
X12.922Y-8.475
X12.922Y-8.575
X12.922Y-8.675
X13.022Y-7.975
X13.022Y-8.375
X13.022Y-8.675
X13.222Y-7.975
T7
X2.622Y-2.475
X2.722Y-2.475
X2.822Y-2.475
X2.922Y-2.475
X3.022Y-2.475
X3.122Y-2.475
X3.222Y-2.475
X3.322Y-2.475
X3.422Y-2.475
X3.522Y-2.475
X3.622Y-2.475
X3.822Y-2.475
X6.022Y-2.275
X6.022Y-2.375
X6.022Y-2.475
X6.024Y-3.075
X6.024Y-3.175
X6.122Y-2.275
X6.122Y-2.375
X6.122Y-2.475
X6.124Y-3.075
X6.124Y-3.175
X6.222Y-2.275
X6.222Y-2.375
X6.222Y-2.475
X6.224Y-3.075
X6.224Y-3.175
X6.322Y-2.275
X6.322Y-2.375
X6.322Y-2.475
X6.324Y-3.075
X6.324Y-3.175
X6.422Y-2.275
X6.422Y-2.375
X6.422Y-2.475
X6.424Y-3.075
X6.424Y-3.175
X6.522Y-2.275
X6.522Y-2.375
X6.522Y-2.475
X6.524Y-3.075
X6.524Y-3.175
X6.622Y-2.275
X6.622Y-2.375
X6.622Y-2.475
X6.624Y-3.075
X6.624Y-3.175
X6.722Y-2.275
X6.722Y-2.375
X6.722Y-2.475
X6.724Y-3.075
X6.724Y-3.175
X6.822Y-2.275
X6.822Y-2.375
X6.822Y-2.475
X6.824Y-3.075
X6.824Y-3.175
X6.922Y-2.275
X6.922Y-2.375
X6.922Y-2.475
X6.924Y-3.075
X6.924Y-3.175
X7.922Y-2.175
X7.922Y-2.275
X7.922Y-2.375
X8.022Y-2.175
X8.022Y-2.275
X8.022Y-2.375
X8.122Y-2.175
X8.122Y-2.275
X8.122Y-2.375
X8.222Y-2.175
X8.222Y-2.275
X8.222Y-2.375
X8.322Y-2.175
X8.322Y-2.275
X8.322Y-2.375
X8.422Y-2.175
X8.422Y-2.275
X8.422Y-2.375
X8.522Y-2.175
X8.522Y-2.275
X8.522Y-2.375
X8.622Y-2.175
X8.622Y-2.275
X8.622Y-2.375
X8.722Y-2.175
X8.722Y-2.275
X8.722Y-2.375
X8.822Y-2.175
X8.822Y-2.275
X8.822Y-2.375
X8.922Y-2.175
X8.922Y-2.275
X8.922Y-2.375
X9.022Y-2.175
X9.022Y-2.275
X9.022Y-2.375
X9.122Y-2.175
X9.122Y-2.275
X9.122Y-2.375
X9.222Y-2.175
X9.222Y-2.275
X9.222Y-2.375
X9.322Y-2.175
X9.322Y-2.275
X9.322Y-2.375
X9.422Y-2.175
X9.422Y-2.275
X9.422Y-2.375
X9.522Y-2.175
X9.522Y-2.275
X9.522Y-2.375
X9.622Y-2.175
X9.622Y-2.275
X9.622Y-2.375
X9.722Y-2.175
X9.722Y-2.275
X9.722Y-2.375
X9.822Y-2.175
X9.822Y-2.275
X9.822Y-2.375
X9.922Y-2.175
X9.922Y-2.275
X9.922Y-2.375
X10.022Y-2.175
X10.022Y-2.275
X10.022Y-2.375
X10.122Y-2.175
X10.122Y-2.275
X10.122Y-2.375
X10.222Y-2.175
X10.222Y-2.275
X10.222Y-2.375
X10.322Y-2.175
X10.322Y-2.275
X10.322Y-2.375
X10.422Y-2.175
X10.422Y-2.275
X10.422Y-2.375
X10.522Y-2.175
X10.522Y-2.275
X10.522Y-2.375
X10.622Y-2.175
X10.622Y-2.275
X10.622Y-2.375
X10.722Y-2.175
X10.722Y-2.275
X10.722Y-2.375
X10.822Y-2.175
X10.822Y-2.275
X10.822Y-2.375
X10.922Y-2.175
X10.922Y-2.275
X10.922Y-2.375
X11.022Y-2.175
X11.022Y-2.275
X11.022Y-2.375
X11.572Y-2.725
X11.572Y-2.825
X11.672Y-2.725
X11.672Y-2.825
X11.772Y-2.725
X11.772Y-2.825
X11.872Y-2.725
X11.872Y-2.825
X11.972Y-2.725
X11.972Y-2.825
X12.072Y-2.725
X12.072Y-2.825
X12.172Y-2.725
X12.172Y-2.825
X12.272Y-2.725
X12.272Y-2.825
X12.372Y-2.725
X12.372Y-2.825
X12.472Y-2.725
X12.472Y-2.825
X12.572Y-2.725
X12.572Y-2.825
X12.672Y-2.725
X12.672Y-2.825
X12.772Y-2.725
X12.772Y-2.825
X12.872Y-2.725
X12.872Y-2.825
X12.972Y-2.725
X12.972Y-2.825
T8
X13.072Y-2.975
X13.072Y-4.1561
T9
X4.1251Y-2.4785
X4.2236Y-2.577
X4.322Y-2.075
X4.4204Y-2.4785
X4.5189Y-2.075
X4.6173Y-2.577
X4.7157Y-2.4785
X4.9283Y-2.4785
X5.0267Y-2.577
X5.1251Y-2.075
X5.2236Y-2.4785
X5.322Y-2.075
X5.4204Y-2.577
X5.5189Y-2.4785
X12.2287Y-2.4791
X12.3271Y-2.5775
X12.4256Y-2.0756
X12.524Y-2.4791
X12.6224Y-2.0756
X12.7209Y-2.5775
X12.8193Y-2.4791
T10
X1.722Y-2.175
X1.722Y-4.775
X1.722Y-8.875
X1.9141Y-2.125
X2.372Y-2.125
X3.372Y-2.125
X3.822Y-2.125
X5.776Y-3.125
X7.172Y-3.125
X7.422Y-2.125
X7.422Y-8.871
X11.523Y-2.073
X11.898Y-2.073
X13.122Y-2.175
X13.122Y-4.775
X13.1245Y-8.8725
X13.2175Y-2.7755
T11
X7.722Y-2.075
X11.222Y-2.075
T0
M30
